<mxfile host="app.diagrams.net" modified="2021-05-28T16:54:41.025Z" agent="5.0 (Windows NT 10.0; Win64; x64) AppleWebKit/537.36 (KHTML, like Gecko) Chrome/90.0.4430.212 Safari/537.36" etag="w7QKtHmQGzELMc-IVwhh" version="14.7.2" type="github" pages="4">
  <diagram id="qnTPNxFLQC8UvUZ7ZRBI" name="Flowchart">
    <mxGraphModel dx="1038" dy="580" grid="1" gridSize="10" guides="1" tooltips="1" connect="1" arrows="1" fold="1" page="1" pageScale="1" pageWidth="850" pageHeight="1100" math="0" shadow="0">
      <root>
        <mxCell id="ca65Wt9CAmgEeaF3HxQL-0" />
        <mxCell id="ca65Wt9CAmgEeaF3HxQL-1" parent="ca65Wt9CAmgEeaF3HxQL-0" />
        <mxCell id="ca65Wt9CAmgEeaF3HxQL-2" style="edgeStyle=orthogonalEdgeStyle;rounded=0;orthogonalLoop=1;jettySize=auto;html=1;" edge="1" parent="ca65Wt9CAmgEeaF3HxQL-1" source="ca65Wt9CAmgEeaF3HxQL-3" target="ca65Wt9CAmgEeaF3HxQL-7">
          <mxGeometry relative="1" as="geometry" />
        </mxCell>
        <mxCell id="ca65Wt9CAmgEeaF3HxQL-3" value="Nhập SĐT" style="rounded=0;whiteSpace=wrap;html=1;fontSize=12;glass=0;strokeWidth=1;shadow=0;" vertex="1" parent="ca65Wt9CAmgEeaF3HxQL-1">
          <mxGeometry x="90" y="155" width="120" height="40" as="geometry" />
        </mxCell>
        <mxCell id="ca65Wt9CAmgEeaF3HxQL-4" style="edgeStyle=orthogonalEdgeStyle;rounded=0;orthogonalLoop=1;jettySize=auto;html=1;entryX=0.5;entryY=0;entryDx=0;entryDy=0;" edge="1" parent="ca65Wt9CAmgEeaF3HxQL-1" source="ca65Wt9CAmgEeaF3HxQL-5" target="ca65Wt9CAmgEeaF3HxQL-3">
          <mxGeometry relative="1" as="geometry" />
        </mxCell>
        <mxCell id="ca65Wt9CAmgEeaF3HxQL-5" value="Bắt đầu" style="strokeWidth=2;html=1;shape=mxgraph.flowchart.start_1;whiteSpace=wrap;" vertex="1" parent="ca65Wt9CAmgEeaF3HxQL-1">
          <mxGeometry x="100" y="35" width="100" height="60" as="geometry" />
        </mxCell>
        <mxCell id="ca65Wt9CAmgEeaF3HxQL-6" value="" style="edgeStyle=orthogonalEdgeStyle;rounded=0;orthogonalLoop=1;jettySize=auto;html=1;" edge="1" parent="ca65Wt9CAmgEeaF3HxQL-1" source="ca65Wt9CAmgEeaF3HxQL-7" target="ca65Wt9CAmgEeaF3HxQL-41">
          <mxGeometry relative="1" as="geometry" />
        </mxCell>
        <mxCell id="ca65Wt9CAmgEeaF3HxQL-7" value="Nhấn button &quot;Get OTP Code&quot;" style="rounded=0;whiteSpace=wrap;html=1;" vertex="1" parent="ca65Wt9CAmgEeaF3HxQL-1">
          <mxGeometry x="90" y="265" width="120" height="60" as="geometry" />
        </mxCell>
        <mxCell id="ca65Wt9CAmgEeaF3HxQL-8" value="false" style="edgeStyle=orthogonalEdgeStyle;rounded=0;orthogonalLoop=1;jettySize=auto;html=1;" edge="1" parent="ca65Wt9CAmgEeaF3HxQL-1" source="ca65Wt9CAmgEeaF3HxQL-10" target="ca65Wt9CAmgEeaF3HxQL-36">
          <mxGeometry relative="1" as="geometry" />
        </mxCell>
        <mxCell id="ca65Wt9CAmgEeaF3HxQL-9" value="true" style="edgeStyle=orthogonalEdgeStyle;rounded=0;orthogonalLoop=1;jettySize=auto;html=1;" edge="1" parent="ca65Wt9CAmgEeaF3HxQL-1" source="ca65Wt9CAmgEeaF3HxQL-10" target="ca65Wt9CAmgEeaF3HxQL-12">
          <mxGeometry relative="1" as="geometry">
            <Array as="points">
              <mxPoint x="620" y="175" />
            </Array>
          </mxGeometry>
        </mxCell>
        <mxCell id="ca65Wt9CAmgEeaF3HxQL-10" value="Verify SĐT" style="strokeWidth=2;html=1;shape=mxgraph.flowchart.decision;whiteSpace=wrap;rounded=0;" vertex="1" parent="ca65Wt9CAmgEeaF3HxQL-1">
          <mxGeometry x="470" y="125" width="100" height="100" as="geometry" />
        </mxCell>
        <mxCell id="ca65Wt9CAmgEeaF3HxQL-11" style="edgeStyle=orthogonalEdgeStyle;rounded=0;orthogonalLoop=1;jettySize=auto;html=1;" edge="1" parent="ca65Wt9CAmgEeaF3HxQL-1" source="ca65Wt9CAmgEeaF3HxQL-12" target="ca65Wt9CAmgEeaF3HxQL-15">
          <mxGeometry relative="1" as="geometry" />
        </mxCell>
        <mxCell id="ca65Wt9CAmgEeaF3HxQL-12" value="Nhận mã OTP" style="rounded=0;whiteSpace=wrap;html=1;" vertex="1" parent="ca65Wt9CAmgEeaF3HxQL-1">
          <mxGeometry x="560" y="260" width="120" height="60" as="geometry" />
        </mxCell>
        <mxCell id="ca65Wt9CAmgEeaF3HxQL-13" style="edgeStyle=orthogonalEdgeStyle;rounded=0;orthogonalLoop=1;jettySize=auto;html=1;" edge="1" parent="ca65Wt9CAmgEeaF3HxQL-1" source="ca65Wt9CAmgEeaF3HxQL-15" target="ca65Wt9CAmgEeaF3HxQL-17">
          <mxGeometry relative="1" as="geometry" />
        </mxCell>
        <mxCell id="ca65Wt9CAmgEeaF3HxQL-14" value="" style="edgeStyle=orthogonalEdgeStyle;rounded=0;orthogonalLoop=1;jettySize=auto;html=1;" edge="1" parent="ca65Wt9CAmgEeaF3HxQL-1" source="ca65Wt9CAmgEeaF3HxQL-15" target="ca65Wt9CAmgEeaF3HxQL-19">
          <mxGeometry relative="1" as="geometry" />
        </mxCell>
        <mxCell id="ca65Wt9CAmgEeaF3HxQL-15" value="Forgot Password Confirm Screen" style="ellipse;whiteSpace=wrap;html=1;rounded=0;" vertex="1" parent="ca65Wt9CAmgEeaF3HxQL-1">
          <mxGeometry x="560" y="390" width="120" height="80" as="geometry" />
        </mxCell>
        <mxCell id="ca65Wt9CAmgEeaF3HxQL-16" value="" style="edgeStyle=orthogonalEdgeStyle;rounded=0;orthogonalLoop=1;jettySize=auto;html=1;" edge="1" parent="ca65Wt9CAmgEeaF3HxQL-1" source="ca65Wt9CAmgEeaF3HxQL-17" target="ca65Wt9CAmgEeaF3HxQL-21">
          <mxGeometry relative="1" as="geometry" />
        </mxCell>
        <mxCell id="ca65Wt9CAmgEeaF3HxQL-17" value="Nhập mã OTP" style="rounded=0;whiteSpace=wrap;html=1;" vertex="1" parent="ca65Wt9CAmgEeaF3HxQL-1">
          <mxGeometry x="370" y="400" width="120" height="60" as="geometry" />
        </mxCell>
        <mxCell id="ca65Wt9CAmgEeaF3HxQL-18" style="edgeStyle=orthogonalEdgeStyle;rounded=0;orthogonalLoop=1;jettySize=auto;html=1;" edge="1" parent="ca65Wt9CAmgEeaF3HxQL-1" source="ca65Wt9CAmgEeaF3HxQL-19" target="ca65Wt9CAmgEeaF3HxQL-17">
          <mxGeometry relative="1" as="geometry">
            <Array as="points">
              <mxPoint x="460" y="570" />
            </Array>
          </mxGeometry>
        </mxCell>
        <mxCell id="ca65Wt9CAmgEeaF3HxQL-19" value="Gửi lại mã OTP" style="rounded=0;whiteSpace=wrap;html=1;" vertex="1" parent="ca65Wt9CAmgEeaF3HxQL-1">
          <mxGeometry x="560" y="540" width="120" height="60" as="geometry" />
        </mxCell>
        <mxCell id="ca65Wt9CAmgEeaF3HxQL-20" style="edgeStyle=orthogonalEdgeStyle;rounded=0;orthogonalLoop=1;jettySize=auto;html=1;" edge="1" parent="ca65Wt9CAmgEeaF3HxQL-1" source="ca65Wt9CAmgEeaF3HxQL-21" target="ca65Wt9CAmgEeaF3HxQL-24">
          <mxGeometry relative="1" as="geometry" />
        </mxCell>
        <mxCell id="ca65Wt9CAmgEeaF3HxQL-21" value="&lt;span&gt;Nhấn button &quot;Confirm&quot;&lt;/span&gt;" style="rounded=0;whiteSpace=wrap;html=1;" vertex="1" parent="ca65Wt9CAmgEeaF3HxQL-1">
          <mxGeometry x="90" y="400" width="120" height="60" as="geometry" />
        </mxCell>
        <mxCell id="ca65Wt9CAmgEeaF3HxQL-22" value="true" style="edgeStyle=orthogonalEdgeStyle;rounded=0;orthogonalLoop=1;jettySize=auto;html=1;" edge="1" parent="ca65Wt9CAmgEeaF3HxQL-1" source="ca65Wt9CAmgEeaF3HxQL-24" target="ca65Wt9CAmgEeaF3HxQL-26">
          <mxGeometry relative="1" as="geometry" />
        </mxCell>
        <mxCell id="ca65Wt9CAmgEeaF3HxQL-23" value="false" style="edgeStyle=orthogonalEdgeStyle;rounded=0;orthogonalLoop=1;jettySize=auto;html=1;" edge="1" parent="ca65Wt9CAmgEeaF3HxQL-1" source="ca65Wt9CAmgEeaF3HxQL-24" target="ca65Wt9CAmgEeaF3HxQL-34">
          <mxGeometry relative="1" as="geometry" />
        </mxCell>
        <mxCell id="ca65Wt9CAmgEeaF3HxQL-24" value="Verify OTP" style="strokeWidth=2;html=1;shape=mxgraph.flowchart.decision;whiteSpace=wrap;rounded=0;" vertex="1" parent="ca65Wt9CAmgEeaF3HxQL-1">
          <mxGeometry x="100" y="520" width="100" height="100" as="geometry" />
        </mxCell>
        <mxCell id="ca65Wt9CAmgEeaF3HxQL-25" value="" style="edgeStyle=orthogonalEdgeStyle;rounded=0;orthogonalLoop=1;jettySize=auto;html=1;" edge="1" parent="ca65Wt9CAmgEeaF3HxQL-1" source="ca65Wt9CAmgEeaF3HxQL-26" target="ca65Wt9CAmgEeaF3HxQL-28">
          <mxGeometry relative="1" as="geometry" />
        </mxCell>
        <mxCell id="ca65Wt9CAmgEeaF3HxQL-26" value="Forgot Password Update Password Screen" style="ellipse;whiteSpace=wrap;html=1;rounded=0;" vertex="1" parent="ca65Wt9CAmgEeaF3HxQL-1">
          <mxGeometry x="70" y="680" width="160" height="80" as="geometry" />
        </mxCell>
        <mxCell id="ca65Wt9CAmgEeaF3HxQL-27" value="" style="edgeStyle=orthogonalEdgeStyle;rounded=0;orthogonalLoop=1;jettySize=auto;html=1;" edge="1" parent="ca65Wt9CAmgEeaF3HxQL-1" source="ca65Wt9CAmgEeaF3HxQL-28" target="ca65Wt9CAmgEeaF3HxQL-30">
          <mxGeometry relative="1" as="geometry" />
        </mxCell>
        <mxCell id="ca65Wt9CAmgEeaF3HxQL-28" value="Nhập mật khẩu mới" style="rounded=0;whiteSpace=wrap;html=1;" vertex="1" parent="ca65Wt9CAmgEeaF3HxQL-1">
          <mxGeometry x="340" y="690" width="120" height="60" as="geometry" />
        </mxCell>
        <mxCell id="ca65Wt9CAmgEeaF3HxQL-29" value="" style="edgeStyle=orthogonalEdgeStyle;rounded=0;orthogonalLoop=1;jettySize=auto;html=1;" edge="1" parent="ca65Wt9CAmgEeaF3HxQL-1" source="ca65Wt9CAmgEeaF3HxQL-30" target="ca65Wt9CAmgEeaF3HxQL-32">
          <mxGeometry relative="1" as="geometry" />
        </mxCell>
        <mxCell id="ca65Wt9CAmgEeaF3HxQL-30" value="Nhập lại mật khẩu mới" style="rounded=0;whiteSpace=wrap;html=1;" vertex="1" parent="ca65Wt9CAmgEeaF3HxQL-1">
          <mxGeometry x="560" y="690" width="120" height="60" as="geometry" />
        </mxCell>
        <mxCell id="ca65Wt9CAmgEeaF3HxQL-31" value="" style="edgeStyle=orthogonalEdgeStyle;rounded=0;orthogonalLoop=1;jettySize=auto;html=1;" edge="1" parent="ca65Wt9CAmgEeaF3HxQL-1" source="ca65Wt9CAmgEeaF3HxQL-32" target="ca65Wt9CAmgEeaF3HxQL-38">
          <mxGeometry relative="1" as="geometry" />
        </mxCell>
        <mxCell id="ca65Wt9CAmgEeaF3HxQL-32" value="&lt;span&gt;Nhấn button &quot;Xác Confirm&quot;&lt;/span&gt;" style="rounded=0;whiteSpace=wrap;html=1;" vertex="1" parent="ca65Wt9CAmgEeaF3HxQL-1">
          <mxGeometry x="560" y="840" width="120" height="60" as="geometry" />
        </mxCell>
        <mxCell id="ca65Wt9CAmgEeaF3HxQL-33" style="edgeStyle=orthogonalEdgeStyle;rounded=0;orthogonalLoop=1;jettySize=auto;html=1;" edge="1" parent="ca65Wt9CAmgEeaF3HxQL-1" source="ca65Wt9CAmgEeaF3HxQL-34" target="ca65Wt9CAmgEeaF3HxQL-17">
          <mxGeometry relative="1" as="geometry">
            <Array as="points">
              <mxPoint x="430" y="570" />
            </Array>
          </mxGeometry>
        </mxCell>
        <mxCell id="ca65Wt9CAmgEeaF3HxQL-34" value="Thông báo lỗi" style="rounded=0;whiteSpace=wrap;html=1;" vertex="1" parent="ca65Wt9CAmgEeaF3HxQL-1">
          <mxGeometry x="280" y="540" width="120" height="60" as="geometry" />
        </mxCell>
        <mxCell id="ca65Wt9CAmgEeaF3HxQL-35" style="edgeStyle=orthogonalEdgeStyle;rounded=0;orthogonalLoop=1;jettySize=auto;html=1;" edge="1" parent="ca65Wt9CAmgEeaF3HxQL-1" source="ca65Wt9CAmgEeaF3HxQL-36" target="ca65Wt9CAmgEeaF3HxQL-3">
          <mxGeometry relative="1" as="geometry" />
        </mxCell>
        <mxCell id="ca65Wt9CAmgEeaF3HxQL-36" value="Thông báo lỗi" style="rounded=0;whiteSpace=wrap;html=1;" vertex="1" parent="ca65Wt9CAmgEeaF3HxQL-1">
          <mxGeometry x="270" y="145" width="120" height="60" as="geometry" />
        </mxCell>
        <mxCell id="ca65Wt9CAmgEeaF3HxQL-37" value="" style="edgeStyle=orthogonalEdgeStyle;rounded=0;orthogonalLoop=1;jettySize=auto;html=1;" edge="1" parent="ca65Wt9CAmgEeaF3HxQL-1" source="ca65Wt9CAmgEeaF3HxQL-38" target="ca65Wt9CAmgEeaF3HxQL-39">
          <mxGeometry relative="1" as="geometry" />
        </mxCell>
        <mxCell id="ca65Wt9CAmgEeaF3HxQL-38" value="Cập nhật mật khẩu mới" style="rounded=0;whiteSpace=wrap;html=1;" vertex="1" parent="ca65Wt9CAmgEeaF3HxQL-1">
          <mxGeometry x="340" y="840" width="120" height="60" as="geometry" />
        </mxCell>
        <mxCell id="ca65Wt9CAmgEeaF3HxQL-39" value="Forgot Password Screen" style="ellipse;whiteSpace=wrap;html=1;rounded=0;" vertex="1" parent="ca65Wt9CAmgEeaF3HxQL-1">
          <mxGeometry x="70" y="840" width="160" height="60" as="geometry" />
        </mxCell>
        <mxCell id="ca65Wt9CAmgEeaF3HxQL-40" style="edgeStyle=orthogonalEdgeStyle;rounded=0;orthogonalLoop=1;jettySize=auto;html=1;" edge="1" parent="ca65Wt9CAmgEeaF3HxQL-1" source="ca65Wt9CAmgEeaF3HxQL-41" target="ca65Wt9CAmgEeaF3HxQL-10">
          <mxGeometry relative="1" as="geometry">
            <Array as="points">
              <mxPoint x="520" y="295" />
            </Array>
          </mxGeometry>
        </mxCell>
        <mxCell id="ca65Wt9CAmgEeaF3HxQL-41" value="gọi class saveServiceAPIByPhoneNumber" style="rounded=0;whiteSpace=wrap;html=1;" vertex="1" parent="ca65Wt9CAmgEeaF3HxQL-1">
          <mxGeometry x="280" y="265" width="200" height="60" as="geometry" />
        </mxCell>
      </root>
    </mxGraphModel>
  </diagram>
  <diagram id="kgpKYQtTHZ0yAKxKKP6v" name="FPScreen">
    <mxGraphModel dx="1038" dy="580" grid="1" gridSize="10" guides="1" tooltips="1" connect="1" arrows="1" fold="1" page="1" pageScale="1" pageWidth="850" pageHeight="1100" math="0" shadow="0">
      <root>
        <mxCell id="0" />
        <mxCell id="1" parent="0" />
        <mxCell id="3nuBFxr9cyL0pnOWT2aG-1" value="User" style="shape=umlLifeline;perimeter=lifelinePerimeter;container=1;collapsible=0;recursiveResize=0;rounded=0;shadow=0;strokeWidth=1;" parent="1" vertex="1">
          <mxGeometry x="80" y="80" width="100" height="400" as="geometry" />
        </mxCell>
        <mxCell id="3nuBFxr9cyL0pnOWT2aG-2" value="" style="points=[];perimeter=orthogonalPerimeter;rounded=0;shadow=0;strokeWidth=1;" parent="3nuBFxr9cyL0pnOWT2aG-1" vertex="1">
          <mxGeometry x="45" y="40" width="10" height="360" as="geometry" />
        </mxCell>
        <mxCell id="3nuBFxr9cyL0pnOWT2aG-5" value="GUI" style="shape=umlLifeline;perimeter=lifelinePerimeter;container=1;collapsible=0;recursiveResize=0;rounded=0;shadow=0;strokeWidth=1;" parent="1" vertex="1">
          <mxGeometry x="420" y="80" width="100" height="400" as="geometry" />
        </mxCell>
        <mxCell id="3nuBFxr9cyL0pnOWT2aG-6" value="" style="points=[];perimeter=orthogonalPerimeter;rounded=0;shadow=0;strokeWidth=1;" parent="3nuBFxr9cyL0pnOWT2aG-5" vertex="1">
          <mxGeometry x="45" y="40" width="10" height="360" as="geometry" />
        </mxCell>
        <mxCell id="e1niNu74zl8YhQTcMVhk-1" value="Server" style="shape=umlLifeline;perimeter=lifelinePerimeter;container=1;collapsible=0;recursiveResize=0;rounded=0;shadow=0;strokeWidth=1;" parent="1" vertex="1">
          <mxGeometry x="780" y="80" width="100" height="400" as="geometry" />
        </mxCell>
        <mxCell id="e1niNu74zl8YhQTcMVhk-2" value="" style="points=[];perimeter=orthogonalPerimeter;rounded=0;shadow=0;strokeWidth=1;" parent="e1niNu74zl8YhQTcMVhk-1" vertex="1">
          <mxGeometry x="45" y="40" width="10" height="360" as="geometry" />
        </mxCell>
        <mxCell id="e1niNu74zl8YhQTcMVhk-8" value="Server kiểm tra số điện thoại" style="endArrow=block;dashed=1;endFill=0;endSize=12;html=1;" parent="e1niNu74zl8YhQTcMVhk-1" source="e1niNu74zl8YhQTcMVhk-2" target="e1niNu74zl8YhQTcMVhk-2" edge="1">
          <mxGeometry x="-0.2857" y="11" width="160" relative="1" as="geometry">
            <mxPoint x="100" y="160" as="sourcePoint" />
            <mxPoint x="260" y="160" as="targetPoint" />
            <Array as="points">
              <mxPoint x="85" y="140" />
              <mxPoint x="130" y="140" />
              <mxPoint x="130" y="200" />
              <mxPoint x="95" y="200" />
            </Array>
            <mxPoint x="-6" y="-10" as="offset" />
          </mxGeometry>
        </mxCell>
        <mxCell id="e1niNu74zl8YhQTcMVhk-5" value="Thực hiện forgot password" style="html=1;verticalAlign=bottom;endArrow=block;" parent="1" source="3nuBFxr9cyL0pnOWT2aG-2" target="3nuBFxr9cyL0pnOWT2aG-6" edge="1">
          <mxGeometry width="80" relative="1" as="geometry">
            <mxPoint x="170" y="160" as="sourcePoint" />
            <mxPoint x="250" y="160" as="targetPoint" />
            <Array as="points">
              <mxPoint x="280" y="160" />
            </Array>
          </mxGeometry>
        </mxCell>
        <mxCell id="e1niNu74zl8YhQTcMVhk-6" value="gọi class saveServiceAPIByPhoneNumber" style="endArrow=block;dashed=1;endFill=0;endSize=12;html=1;" parent="1" source="3nuBFxr9cyL0pnOWT2aG-6" target="e1niNu74zl8YhQTcMVhk-1" edge="1">
          <mxGeometry x="-0.0328" y="10" width="160" relative="1" as="geometry">
            <mxPoint x="340" y="300" as="sourcePoint" />
            <mxPoint x="500" y="300" as="targetPoint" />
            <Array as="points">
              <mxPoint x="490" y="190" />
              <mxPoint x="570" y="190" />
            </Array>
            <mxPoint as="offset" />
          </mxGeometry>
        </mxCell>
        <mxCell id="e1niNu74zl8YhQTcMVhk-9" value="Thành công?" style="shape=rhombus;perimeter=rhombusPerimeter;whiteSpace=wrap;html=1;align=center;" parent="1" vertex="1">
          <mxGeometry x="580" y="320" width="120" height="60" as="geometry" />
        </mxCell>
        <mxCell id="e1niNu74zl8YhQTcMVhk-10" value="Xử lý thông tin trả về" style="endArrow=block;dashed=1;endFill=0;endSize=12;html=1;entryX=0.5;entryY=0;entryDx=0;entryDy=0;" parent="1" source="e1niNu74zl8YhQTcMVhk-2" target="e1niNu74zl8YhQTcMVhk-9" edge="1">
          <mxGeometry y="-10" width="160" relative="1" as="geometry">
            <mxPoint x="410" y="280" as="sourcePoint" />
            <mxPoint x="570" y="280" as="targetPoint" />
            <Array as="points">
              <mxPoint x="640" y="280" />
            </Array>
            <mxPoint as="offset" />
          </mxGeometry>
        </mxCell>
        <mxCell id="e1niNu74zl8YhQTcMVhk-12" value="false" style="endArrow=block;dashed=1;endFill=0;endSize=12;html=1;exitX=0;exitY=0.5;exitDx=0;exitDy=0;" parent="1" source="e1niNu74zl8YhQTcMVhk-9" target="3nuBFxr9cyL0pnOWT2aG-6" edge="1">
          <mxGeometry x="-0.0667" y="-10" width="160" relative="1" as="geometry">
            <mxPoint x="410" y="280" as="sourcePoint" />
            <mxPoint x="420" y="340" as="targetPoint" />
            <mxPoint as="offset" />
          </mxGeometry>
        </mxCell>
        <mxCell id="e1niNu74zl8YhQTcMVhk-13" value="Thông báo lỗi rõ ràng cho người dùng" style="endArrow=block;dashed=1;endFill=0;endSize=12;html=1;" parent="1" source="3nuBFxr9cyL0pnOWT2aG-5" target="3nuBFxr9cyL0pnOWT2aG-2" edge="1">
          <mxGeometry x="-0.0025" y="-13" width="160" relative="1" as="geometry">
            <mxPoint x="410" y="280" as="sourcePoint" />
            <mxPoint x="570" y="280" as="targetPoint" />
            <Array as="points">
              <mxPoint x="330" y="350" />
              <mxPoint x="290" y="350" />
            </Array>
            <mxPoint as="offset" />
          </mxGeometry>
        </mxCell>
        <mxCell id="e1niNu74zl8YhQTcMVhk-14" value="true" style="endArrow=block;dashed=1;endFill=0;endSize=12;html=1;exitX=0.5;exitY=1;exitDx=0;exitDy=0;" parent="1" source="e1niNu74zl8YhQTcMVhk-9" target="3nuBFxr9cyL0pnOWT2aG-6" edge="1">
          <mxGeometry x="0.0455" y="-10" width="160" relative="1" as="geometry">
            <mxPoint x="410" y="280" as="sourcePoint" />
            <mxPoint x="410" y="470" as="targetPoint" />
            <Array as="points">
              <mxPoint x="640" y="470" />
            </Array>
            <mxPoint as="offset" />
          </mxGeometry>
        </mxCell>
        <mxCell id="e1niNu74zl8YhQTcMVhk-15" value="&lt;font style=&quot;font-size: 10px&quot;&gt;Thực hiện chuyển sang màn hình&amp;nbsp;Forgot Password Confirm Screen&lt;/font&gt;" style="endArrow=block;dashed=1;endFill=0;endSize=12;html=1;" parent="1" source="3nuBFxr9cyL0pnOWT2aG-6" target="3nuBFxr9cyL0pnOWT2aG-1" edge="1">
          <mxGeometry x="-0.0206" y="-10" width="160" relative="1" as="geometry">
            <mxPoint x="395.33" y="450" as="sourcePoint" />
            <mxPoint x="130" y="450" as="targetPoint" />
            <Array as="points">
              <mxPoint x="310" y="470" />
              <mxPoint x="200" y="470" />
              <mxPoint x="160" y="470" />
            </Array>
            <mxPoint as="offset" />
          </mxGeometry>
        </mxCell>
      </root>
    </mxGraphModel>
  </diagram>
  <diagram id="Lt3zV3Sj8uLjKdWx7oYG" name="FPConfirm">
    <mxGraphModel dx="1038" dy="580" grid="1" gridSize="10" guides="1" tooltips="1" connect="1" arrows="1" fold="1" page="1" pageScale="1" pageWidth="850" pageHeight="1100" math="0" shadow="0">
      <root>
        <mxCell id="xoB8G_OaZXxH_Pc82NpR-0" />
        <mxCell id="xoB8G_OaZXxH_Pc82NpR-1" parent="xoB8G_OaZXxH_Pc82NpR-0" />
        <mxCell id="xoB8G_OaZXxH_Pc82NpR-2" value="User" style="shape=umlLifeline;perimeter=lifelinePerimeter;container=1;collapsible=0;recursiveResize=0;rounded=0;shadow=0;strokeWidth=1;" parent="xoB8G_OaZXxH_Pc82NpR-1" vertex="1">
          <mxGeometry x="30" y="80" width="100" height="400" as="geometry" />
        </mxCell>
        <mxCell id="xoB8G_OaZXxH_Pc82NpR-3" value="" style="points=[];perimeter=orthogonalPerimeter;rounded=0;shadow=0;strokeWidth=1;" parent="xoB8G_OaZXxH_Pc82NpR-2" vertex="1">
          <mxGeometry x="45" y="40" width="10" height="360" as="geometry" />
        </mxCell>
        <mxCell id="xoB8G_OaZXxH_Pc82NpR-4" value="GUI" style="shape=umlLifeline;perimeter=lifelinePerimeter;container=1;collapsible=0;recursiveResize=0;rounded=0;shadow=0;strokeWidth=1;" parent="xoB8G_OaZXxH_Pc82NpR-1" vertex="1">
          <mxGeometry x="390" y="90" width="100" height="400" as="geometry" />
        </mxCell>
        <mxCell id="xoB8G_OaZXxH_Pc82NpR-5" value="" style="points=[];perimeter=orthogonalPerimeter;rounded=0;shadow=0;strokeWidth=1;" parent="xoB8G_OaZXxH_Pc82NpR-4" vertex="1">
          <mxGeometry x="45" y="40" width="10" height="360" as="geometry" />
        </mxCell>
        <mxCell id="xoB8G_OaZXxH_Pc82NpR-6" value="Server" style="shape=umlLifeline;perimeter=lifelinePerimeter;container=1;collapsible=0;recursiveResize=0;rounded=0;shadow=0;strokeWidth=1;" parent="xoB8G_OaZXxH_Pc82NpR-1" vertex="1">
          <mxGeometry x="760" y="90" width="100" height="400" as="geometry" />
        </mxCell>
        <mxCell id="xoB8G_OaZXxH_Pc82NpR-7" value="" style="points=[];perimeter=orthogonalPerimeter;rounded=0;shadow=0;strokeWidth=1;" parent="xoB8G_OaZXxH_Pc82NpR-6" vertex="1">
          <mxGeometry x="45" y="40" width="10" height="360" as="geometry" />
        </mxCell>
        <mxCell id="xoB8G_OaZXxH_Pc82NpR-8" value="Server kiểm tra mã OTP đã nhập" style="endArrow=block;dashed=1;endFill=0;endSize=12;html=1;" parent="xoB8G_OaZXxH_Pc82NpR-6" source="xoB8G_OaZXxH_Pc82NpR-7" target="xoB8G_OaZXxH_Pc82NpR-7" edge="1">
          <mxGeometry x="-0.25" y="14" width="160" relative="1" as="geometry">
            <mxPoint x="100" y="160" as="sourcePoint" />
            <mxPoint x="260" y="160" as="targetPoint" />
            <Array as="points">
              <mxPoint x="85" y="140" />
              <mxPoint x="130" y="140" />
              <mxPoint x="130" y="190" />
              <mxPoint x="95" y="190" />
            </Array>
            <mxPoint x="-4" y="-10" as="offset" />
          </mxGeometry>
        </mxCell>
        <mxCell id="xoB8G_OaZXxH_Pc82NpR-9" value="Thực hiện nhập mã OTP và confirm" style="html=1;verticalAlign=bottom;endArrow=block;" parent="xoB8G_OaZXxH_Pc82NpR-1" source="xoB8G_OaZXxH_Pc82NpR-3" target="xoB8G_OaZXxH_Pc82NpR-5" edge="1">
          <mxGeometry width="80" relative="1" as="geometry">
            <mxPoint x="170" y="160" as="sourcePoint" />
            <mxPoint x="250" y="160" as="targetPoint" />
            <Array as="points">
              <mxPoint x="280" y="160" />
            </Array>
          </mxGeometry>
        </mxCell>
        <mxCell id="xoB8G_OaZXxH_Pc82NpR-10" value="api validateOTP:&amp;nbsp;/identityserver/Account/ValidateOTP" style="endArrow=block;dashed=1;endFill=0;endSize=12;html=1;" parent="xoB8G_OaZXxH_Pc82NpR-1" source="xoB8G_OaZXxH_Pc82NpR-5" target="xoB8G_OaZXxH_Pc82NpR-6" edge="1">
          <mxGeometry x="-0.0328" y="10" width="160" relative="1" as="geometry">
            <mxPoint x="340" y="300" as="sourcePoint" />
            <mxPoint x="500" y="300" as="targetPoint" />
            <Array as="points">
              <mxPoint x="490" y="190" />
              <mxPoint x="570" y="190" />
            </Array>
            <mxPoint as="offset" />
          </mxGeometry>
        </mxCell>
        <mxCell id="xoB8G_OaZXxH_Pc82NpR-11" value="Thành công?" style="shape=rhombus;perimeter=rhombusPerimeter;whiteSpace=wrap;html=1;align=center;" parent="xoB8G_OaZXxH_Pc82NpR-1" vertex="1">
          <mxGeometry x="570" y="310" width="120" height="60" as="geometry" />
        </mxCell>
        <mxCell id="xoB8G_OaZXxH_Pc82NpR-12" value="Xử lý thông tin trả về" style="endArrow=block;dashed=1;endFill=0;endSize=12;html=1;entryX=0.5;entryY=0;entryDx=0;entryDy=0;" parent="xoB8G_OaZXxH_Pc82NpR-1" source="xoB8G_OaZXxH_Pc82NpR-7" target="xoB8G_OaZXxH_Pc82NpR-11" edge="1">
          <mxGeometry y="-10" width="160" relative="1" as="geometry">
            <mxPoint x="410" y="280" as="sourcePoint" />
            <mxPoint x="570" y="280" as="targetPoint" />
            <Array as="points">
              <mxPoint x="630" y="280" />
            </Array>
            <mxPoint as="offset" />
          </mxGeometry>
        </mxCell>
        <mxCell id="xoB8G_OaZXxH_Pc82NpR-13" value="false" style="endArrow=block;dashed=1;endFill=0;endSize=12;html=1;exitX=0;exitY=0.5;exitDx=0;exitDy=0;" parent="xoB8G_OaZXxH_Pc82NpR-1" source="xoB8G_OaZXxH_Pc82NpR-11" target="xoB8G_OaZXxH_Pc82NpR-5" edge="1">
          <mxGeometry x="-0.0667" y="-10" width="160" relative="1" as="geometry">
            <mxPoint x="410" y="280" as="sourcePoint" />
            <mxPoint x="420" y="340" as="targetPoint" />
            <mxPoint as="offset" />
          </mxGeometry>
        </mxCell>
        <mxCell id="xoB8G_OaZXxH_Pc82NpR-14" value="Thông báo lỗi nhập sai mã OTP" style="endArrow=block;dashed=1;endFill=0;endSize=12;html=1;" parent="xoB8G_OaZXxH_Pc82NpR-1" source="xoB8G_OaZXxH_Pc82NpR-4" target="xoB8G_OaZXxH_Pc82NpR-3" edge="1">
          <mxGeometry x="-0.0025" y="-13" width="160" relative="1" as="geometry">
            <mxPoint x="410" y="280" as="sourcePoint" />
            <mxPoint x="570" y="280" as="targetPoint" />
            <Array as="points">
              <mxPoint x="330" y="340" />
            </Array>
            <mxPoint as="offset" />
          </mxGeometry>
        </mxCell>
        <mxCell id="xoB8G_OaZXxH_Pc82NpR-15" value="true" style="endArrow=block;dashed=1;endFill=0;endSize=12;html=1;exitX=0.5;exitY=1;exitDx=0;exitDy=0;" parent="xoB8G_OaZXxH_Pc82NpR-1" source="xoB8G_OaZXxH_Pc82NpR-11" target="xoB8G_OaZXxH_Pc82NpR-5" edge="1">
          <mxGeometry x="0.0455" y="-10" width="160" relative="1" as="geometry">
            <mxPoint x="410" y="280" as="sourcePoint" />
            <mxPoint x="410" y="470" as="targetPoint" />
            <Array as="points">
              <mxPoint x="630" y="470" />
            </Array>
            <mxPoint as="offset" />
          </mxGeometry>
        </mxCell>
        <mxCell id="xoB8G_OaZXxH_Pc82NpR-16" value="&lt;font style=&quot;font-size: 10px&quot;&gt;Thực hiện chuyển sang màn hình&amp;nbsp;Forgot Password Update Password Screen&lt;/font&gt;" style="endArrow=block;dashed=1;endFill=0;endSize=12;html=1;" parent="xoB8G_OaZXxH_Pc82NpR-1" source="xoB8G_OaZXxH_Pc82NpR-5" target="xoB8G_OaZXxH_Pc82NpR-2" edge="1">
          <mxGeometry x="-0.0206" y="-10" width="160" relative="1" as="geometry">
            <mxPoint x="395.33" y="450" as="sourcePoint" />
            <mxPoint x="130" y="450" as="targetPoint" />
            <Array as="points">
              <mxPoint x="310" y="470" />
              <mxPoint x="200" y="470" />
              <mxPoint x="160" y="470" />
            </Array>
            <mxPoint as="offset" />
          </mxGeometry>
        </mxCell>
      </root>
    </mxGraphModel>
  </diagram>
  <diagram id="qe2k1eTSdGSsl5ui-Jsq" name="FPUpdate">
    <mxGraphModel dx="1038" dy="580" grid="1" gridSize="10" guides="1" tooltips="1" connect="1" arrows="1" fold="1" page="1" pageScale="1" pageWidth="850" pageHeight="1100" math="0" shadow="0">
      <root>
        <mxCell id="S1_EompgXxATdJnlB-dr-0" />
        <mxCell id="S1_EompgXxATdJnlB-dr-1" parent="S1_EompgXxATdJnlB-dr-0" />
        <mxCell id="yZXVV_exHAJ5aLQARfCN-0" value="User" style="shape=umlLifeline;perimeter=lifelinePerimeter;container=1;collapsible=0;recursiveResize=0;rounded=0;shadow=0;strokeWidth=1;" parent="S1_EompgXxATdJnlB-dr-1" vertex="1">
          <mxGeometry x="20" y="80" width="100" height="530" as="geometry" />
        </mxCell>
        <mxCell id="yZXVV_exHAJ5aLQARfCN-1" value="" style="points=[];perimeter=orthogonalPerimeter;rounded=0;shadow=0;strokeWidth=1;" parent="yZXVV_exHAJ5aLQARfCN-0" vertex="1">
          <mxGeometry x="45" y="40" width="10" height="490" as="geometry" />
        </mxCell>
        <mxCell id="yZXVV_exHAJ5aLQARfCN-2" value="GUI" style="shape=umlLifeline;perimeter=lifelinePerimeter;container=1;collapsible=0;recursiveResize=0;rounded=0;shadow=0;strokeWidth=1;" parent="S1_EompgXxATdJnlB-dr-1" vertex="1">
          <mxGeometry x="325" y="80" width="100" height="530" as="geometry" />
        </mxCell>
        <mxCell id="yZXVV_exHAJ5aLQARfCN-3" value="" style="points=[];perimeter=orthogonalPerimeter;rounded=0;shadow=0;strokeWidth=1;" parent="yZXVV_exHAJ5aLQARfCN-2" vertex="1">
          <mxGeometry x="45" y="40" width="10" height="490" as="geometry" />
        </mxCell>
        <mxCell id="yZXVV_exHAJ5aLQARfCN-4" value="Server" style="shape=umlLifeline;perimeter=lifelinePerimeter;container=1;collapsible=0;recursiveResize=0;rounded=0;shadow=0;strokeWidth=1;" parent="S1_EompgXxATdJnlB-dr-1" vertex="1">
          <mxGeometry x="760" y="80" width="100" height="520" as="geometry" />
        </mxCell>
        <mxCell id="yZXVV_exHAJ5aLQARfCN-5" value="" style="points=[];perimeter=orthogonalPerimeter;rounded=0;shadow=0;strokeWidth=1;" parent="yZXVV_exHAJ5aLQARfCN-4" vertex="1">
          <mxGeometry x="45" y="40" width="10" height="480" as="geometry" />
        </mxCell>
        <mxCell id="yZXVV_exHAJ5aLQARfCN-6" value="Server cập nhật mật khẩu mới" style="endArrow=block;dashed=1;endFill=0;endSize=12;html=1;" parent="yZXVV_exHAJ5aLQARfCN-4" source="yZXVV_exHAJ5aLQARfCN-5" target="yZXVV_exHAJ5aLQARfCN-5" edge="1">
          <mxGeometry x="-0.2857" y="11" width="160" relative="1" as="geometry">
            <mxPoint x="100" y="160" as="sourcePoint" />
            <mxPoint x="260" y="160" as="targetPoint" />
            <Array as="points">
              <mxPoint x="85" y="140" />
              <mxPoint x="130" y="140" />
              <mxPoint x="130" y="200" />
              <mxPoint x="95" y="200" />
            </Array>
            <mxPoint x="-6" y="-10" as="offset" />
          </mxGeometry>
        </mxCell>
        <mxCell id="4t0KBIIQNWgnvYDEpwMm-0" value="" style="endArrow=block;dashed=1;endFill=0;endSize=12;html=1;" parent="yZXVV_exHAJ5aLQARfCN-4" source="yZXVV_exHAJ5aLQARfCN-5" target="yZXVV_exHAJ5aLQARfCN-4" edge="1">
          <mxGeometry x="-0.2857" y="11" width="160" relative="1" as="geometry">
            <mxPoint x="60" y="440" as="sourcePoint" />
            <mxPoint x="60" y="500" as="targetPoint" />
            <Array as="points">
              <mxPoint x="90" y="440" />
              <mxPoint x="135" y="440" />
              <mxPoint x="135" y="500" />
              <mxPoint x="100" y="500" />
            </Array>
            <mxPoint x="-6" y="-10" as="offset" />
          </mxGeometry>
        </mxCell>
        <mxCell id="yZXVV_exHAJ5aLQARfCN-7" value="Thực hiện New Password và confirm" style="html=1;verticalAlign=bottom;endArrow=block;" parent="S1_EompgXxATdJnlB-dr-1" source="yZXVV_exHAJ5aLQARfCN-1" target="yZXVV_exHAJ5aLQARfCN-3" edge="1">
          <mxGeometry width="80" relative="1" as="geometry">
            <mxPoint x="170" y="160" as="sourcePoint" />
            <mxPoint x="250" y="160" as="targetPoint" />
            <Array as="points">
              <mxPoint x="280" y="160" />
            </Array>
          </mxGeometry>
        </mxCell>
        <mxCell id="yZXVV_exHAJ5aLQARfCN-8" value="api&amp;nbsp;confirmPasswordFromApp:&amp;nbsp;/identityserver/Account/ConfirmPasswordFromApp" style="endArrow=block;dashed=1;endFill=0;endSize=12;html=1;" parent="S1_EompgXxATdJnlB-dr-1" source="yZXVV_exHAJ5aLQARfCN-3" target="yZXVV_exHAJ5aLQARfCN-4" edge="1">
          <mxGeometry x="-0.0328" y="10" width="160" relative="1" as="geometry">
            <mxPoint x="340" y="300" as="sourcePoint" />
            <mxPoint x="500" y="300" as="targetPoint" />
            <Array as="points">
              <mxPoint x="490" y="190" />
              <mxPoint x="570" y="190" />
            </Array>
            <mxPoint as="offset" />
          </mxGeometry>
        </mxCell>
        <mxCell id="yZXVV_exHAJ5aLQARfCN-9" value="Thành công?" style="shape=rhombus;perimeter=rhombusPerimeter;whiteSpace=wrap;html=1;align=center;" parent="S1_EompgXxATdJnlB-dr-1" vertex="1">
          <mxGeometry x="495" y="310" width="120" height="60" as="geometry" />
        </mxCell>
        <mxCell id="yZXVV_exHAJ5aLQARfCN-10" value="Xử lý thông tin trả về" style="endArrow=block;dashed=1;endFill=0;endSize=12;html=1;entryX=0.5;entryY=0;entryDx=0;entryDy=0;" parent="S1_EompgXxATdJnlB-dr-1" source="yZXVV_exHAJ5aLQARfCN-5" target="yZXVV_exHAJ5aLQARfCN-9" edge="1">
          <mxGeometry y="-10" width="160" relative="1" as="geometry">
            <mxPoint x="410" y="280" as="sourcePoint" />
            <mxPoint x="570" y="280" as="targetPoint" />
            <Array as="points">
              <mxPoint x="555" y="280" />
            </Array>
            <mxPoint as="offset" />
          </mxGeometry>
        </mxCell>
        <mxCell id="yZXVV_exHAJ5aLQARfCN-11" value="false" style="endArrow=block;dashed=1;endFill=0;endSize=12;html=1;exitX=0;exitY=0.5;exitDx=0;exitDy=0;" parent="S1_EompgXxATdJnlB-dr-1" source="yZXVV_exHAJ5aLQARfCN-9" target="yZXVV_exHAJ5aLQARfCN-3" edge="1">
          <mxGeometry x="-0.0667" y="-10" width="160" relative="1" as="geometry">
            <mxPoint x="410" y="280" as="sourcePoint" />
            <mxPoint x="420" y="340" as="targetPoint" />
            <mxPoint as="offset" />
          </mxGeometry>
        </mxCell>
        <mxCell id="yZXVV_exHAJ5aLQARfCN-12" value="Thông báo lỗi rõ ràng cho người dùng" style="endArrow=block;dashed=1;endFill=0;endSize=12;html=1;" parent="S1_EompgXxATdJnlB-dr-1" source="yZXVV_exHAJ5aLQARfCN-2" target="yZXVV_exHAJ5aLQARfCN-1" edge="1">
          <mxGeometry x="-0.0025" y="-13" width="160" relative="1" as="geometry">
            <mxPoint x="410" y="280" as="sourcePoint" />
            <mxPoint x="570" y="280" as="targetPoint" />
            <Array as="points">
              <mxPoint x="330" y="340" />
            </Array>
            <mxPoint as="offset" />
          </mxGeometry>
        </mxCell>
        <mxCell id="yZXVV_exHAJ5aLQARfCN-13" value="true" style="endArrow=block;dashed=1;endFill=0;endSize=12;html=1;exitX=0.5;exitY=1;exitDx=0;exitDy=0;" parent="S1_EompgXxATdJnlB-dr-1" source="yZXVV_exHAJ5aLQARfCN-9" edge="1">
          <mxGeometry x="0.0455" y="-10" width="160" relative="1" as="geometry">
            <mxPoint x="410" y="280" as="sourcePoint" />
            <mxPoint x="390" y="520" as="targetPoint" />
            <Array as="points">
              <mxPoint x="555" y="470" />
              <mxPoint x="390" y="470" />
              <mxPoint x="390" y="490" />
            </Array>
            <mxPoint as="offset" />
          </mxGeometry>
        </mxCell>
        <mxCell id="Bq2Cxu1pyHoQRDxVW-Ro-0" value="gọi event LoggedOut" style="endArrow=block;dashed=1;endFill=0;endSize=12;html=1;" parent="S1_EompgXxATdJnlB-dr-1" source="yZXVV_exHAJ5aLQARfCN-3" target="yZXVV_exHAJ5aLQARfCN-5" edge="1">
          <mxGeometry x="-0.0263" y="10" width="160" relative="1" as="geometry">
            <mxPoint x="400" y="510" as="sourcePoint" />
            <mxPoint x="560" y="510" as="targetPoint" />
            <Array as="points">
              <mxPoint x="610" y="520" />
            </Array>
            <mxPoint as="offset" />
          </mxGeometry>
        </mxCell>
        <mxCell id="4t0KBIIQNWgnvYDEpwMm-1" value="Trả về kết quả" style="endArrow=block;dashed=1;endFill=0;endSize=12;html=1;" parent="S1_EompgXxATdJnlB-dr-1" source="yZXVV_exHAJ5aLQARfCN-5" target="yZXVV_exHAJ5aLQARfCN-3" edge="1">
          <mxGeometry width="160" relative="1" as="geometry">
            <mxPoint x="340" y="530" as="sourcePoint" />
            <mxPoint x="500" y="530" as="targetPoint" />
            <Array as="points">
              <mxPoint x="660" y="580" />
            </Array>
          </mxGeometry>
        </mxCell>
        <mxCell id="4t0KBIIQNWgnvYDEpwMm-2" value="Thực hiện chuyển sang màn hình Forgot Password" style="endArrow=block;dashed=1;endFill=0;endSize=12;html=1;" parent="S1_EompgXxATdJnlB-dr-1" source="yZXVV_exHAJ5aLQARfCN-3" target="yZXVV_exHAJ5aLQARfCN-1" edge="1">
          <mxGeometry x="0.0169" y="-10" width="160" relative="1" as="geometry">
            <mxPoint x="120" y="550" as="sourcePoint" />
            <mxPoint x="280" y="550" as="targetPoint" />
            <Array as="points">
              <mxPoint x="230" y="600" />
            </Array>
            <mxPoint as="offset" />
          </mxGeometry>
        </mxCell>
      </root>
    </mxGraphModel>
  </diagram>
</mxfile>
